<svg xmlns="http://www.w3.org/2000/svg" xmlns:xlink="http://www.w3.org/1999/xlink" width="500" zoomAndPan="magnify" viewBox="0 0 375 374.999991" height="500" preserveAspectRatio="xMidYMid meet" version="1.0"><defs><g/><clipPath id="3663937f23"><path d="M 92.917969 92.917969 L 282.082031 92.917969 L 282.082031 282.082031 L 92.917969 282.082031 Z M 92.917969 92.917969 " clip-rule="nonzero"/></clipPath><clipPath id="6cd816d645"><path d="M 187.5 92.917969 C 135.265625 92.917969 92.917969 135.265625 92.917969 187.5 C 92.917969 239.734375 135.265625 282.082031 187.5 282.082031 C 239.734375 282.082031 282.082031 239.734375 282.082031 187.5 C 282.082031 135.265625 239.734375 92.917969 187.5 92.917969 " clip-rule="nonzero"/></clipPath></defs><rect x="-37.5" width="450" fill="#ffffff" y="-37.499999" height="449.999989" fill-opacity="1"/><rect x="-37.5" width="450" fill="#ffffff" y="-37.499999" height="449.999989" fill-opacity="1"/><rect x="-37.5" width="450" fill="#ffffff" y="-37.499999" height="449.999989" fill-opacity="1"/><g clip-path="url(#3663937f23)"><g clip-path="url(#6cd816d645)"><path fill="#ffde59" d="M 92.917969 92.917969 L 282.082031 92.917969 L 282.082031 282.082031 L 92.917969 282.082031 Z M 92.917969 92.917969 " fill-opacity="1" fill-rule="nonzero"/></g></g><g fill="#000000" fill-opacity="1"><g transform="translate(157.465586, 194.918704)"><g><path d="M 6.578125 0.21875 C 4.753906 0.21875 3.351562 -0.316406 2.375 -1.390625 C 1.394531 -2.472656 0.90625 -4.050781 0.90625 -6.125 C 0.90625 -8.132812 1.398438 -9.675781 2.390625 -10.75 C 3.390625 -11.832031 4.800781 -12.375 6.625 -12.375 C 8.375 -12.375 9.707031 -11.796875 10.625 -10.640625 C 11.539062 -9.484375 12 -7.789062 12 -5.5625 L 12 -5.46875 L 4.21875 -5.46875 C 4.21875 -4.28125 4.4375 -3.382812 4.875 -2.78125 C 5.3125 -2.1875 5.929688 -1.890625 6.734375 -1.890625 C 7.847656 -1.890625 8.550781 -2.367188 8.84375 -3.328125 L 11.828125 -3.078125 C 10.960938 -0.878906 9.210938 0.21875 6.578125 0.21875 Z M 6.578125 -10.390625 C 5.835938 -10.390625 5.265625 -10.128906 4.859375 -9.609375 C 4.460938 -9.097656 4.253906 -8.378906 4.234375 -7.453125 L 8.953125 -7.453125 C 8.890625 -8.429688 8.648438 -9.164062 8.234375 -9.65625 C 7.828125 -10.144531 7.273438 -10.390625 6.578125 -10.390625 Z M 6.578125 -10.390625 "/></g></g></g><g fill="#000000" fill-opacity="1"><g transform="translate(170.252744, 194.918704)"><g><path d="M 6.6875 4.875 C 5.207031 4.875 4.015625 4.585938 3.109375 4.015625 C 2.210938 3.453125 1.660156 2.648438 1.453125 1.609375 L 4.609375 1.234375 C 4.710938 1.722656 4.953125 2.101562 5.328125 2.375 C 5.703125 2.65625 6.1875 2.796875 6.78125 2.796875 C 7.65625 2.796875 8.296875 2.523438 8.703125 1.984375 C 9.109375 1.441406 9.3125 0.640625 9.3125 -0.421875 L 9.3125 -1.0625 L 9.328125 -2.25 L 9.3125 -2.25 C 8.613281 -0.757812 7.3125 -0.015625 5.40625 -0.015625 C 3.988281 -0.015625 2.890625 -0.546875 2.109375 -1.609375 C 1.328125 -2.679688 0.9375 -4.203125 0.9375 -6.171875 C 0.9375 -8.160156 1.335938 -9.691406 2.140625 -10.765625 C 2.941406 -11.847656 4.109375 -12.390625 5.640625 -12.390625 C 7.398438 -12.390625 8.625 -11.660156 9.3125 -10.203125 L 9.359375 -10.203125 C 9.359375 -10.460938 9.375 -10.816406 9.40625 -11.265625 C 9.445312 -11.710938 9.488281 -12.007812 9.53125 -12.15625 L 12.515625 -12.15625 C 12.460938 -11.34375 12.4375 -10.40625 12.4375 -9.34375 L 12.4375 -0.375 C 12.4375 1.351562 11.945312 2.660156 10.96875 3.546875 C 9.988281 4.429688 8.5625 4.875 6.6875 4.875 Z M 9.328125 -6.25 C 9.328125 -7.5 9.101562 -8.472656 8.65625 -9.171875 C 8.21875 -9.867188 7.585938 -10.21875 6.765625 -10.21875 C 5.078125 -10.21875 4.234375 -8.867188 4.234375 -6.171875 C 4.234375 -3.535156 5.066406 -2.21875 6.734375 -2.21875 C 7.578125 -2.21875 8.21875 -2.566406 8.65625 -3.265625 C 9.101562 -3.960938 9.328125 -4.957031 9.328125 -6.25 Z M 9.328125 -6.25 "/></g></g></g><g fill="#000000" fill-opacity="1"><g transform="translate(184.297287, 194.918704)"><g><path d="M 6.6875 4.875 C 5.207031 4.875 4.015625 4.585938 3.109375 4.015625 C 2.210938 3.453125 1.660156 2.648438 1.453125 1.609375 L 4.609375 1.234375 C 4.710938 1.722656 4.953125 2.101562 5.328125 2.375 C 5.703125 2.65625 6.1875 2.796875 6.78125 2.796875 C 7.65625 2.796875 8.296875 2.523438 8.703125 1.984375 C 9.109375 1.441406 9.3125 0.640625 9.3125 -0.421875 L 9.3125 -1.0625 L 9.328125 -2.25 L 9.3125 -2.25 C 8.613281 -0.757812 7.3125 -0.015625 5.40625 -0.015625 C 3.988281 -0.015625 2.890625 -0.546875 2.109375 -1.609375 C 1.328125 -2.679688 0.9375 -4.203125 0.9375 -6.171875 C 0.9375 -8.160156 1.335938 -9.691406 2.140625 -10.765625 C 2.941406 -11.847656 4.109375 -12.390625 5.640625 -12.390625 C 7.398438 -12.390625 8.625 -11.660156 9.3125 -10.203125 L 9.359375 -10.203125 C 9.359375 -10.460938 9.375 -10.816406 9.40625 -11.265625 C 9.445312 -11.710938 9.488281 -12.007812 9.53125 -12.15625 L 12.515625 -12.15625 C 12.460938 -11.34375 12.4375 -10.40625 12.4375 -9.34375 L 12.4375 -0.375 C 12.4375 1.351562 11.945312 2.660156 10.96875 3.546875 C 9.988281 4.429688 8.5625 4.875 6.6875 4.875 Z M 9.328125 -6.25 C 9.328125 -7.5 9.101562 -8.472656 8.65625 -9.171875 C 8.21875 -9.867188 7.585938 -10.21875 6.765625 -10.21875 C 5.078125 -10.21875 4.234375 -8.867188 4.234375 -6.171875 C 4.234375 -3.535156 5.066406 -2.21875 6.734375 -2.21875 C 7.578125 -2.21875 8.21875 -2.566406 8.65625 -3.265625 C 9.101562 -3.960938 9.328125 -4.957031 9.328125 -6.25 Z M 9.328125 -6.25 "/></g></g></g><g fill="#000000" fill-opacity="1"><g transform="translate(198.341831, 194.918704)"><g><path d="M 11.84375 -3.546875 C 11.84375 -2.367188 11.363281 -1.445312 10.40625 -0.78125 C 9.445312 -0.113281 8.113281 0.21875 6.40625 0.21875 C 4.738281 0.21875 3.460938 -0.0390625 2.578125 -0.5625 C 1.691406 -1.09375 1.101562 -1.914062 0.8125 -3.03125 L 3.578125 -3.453125 C 3.734375 -2.867188 4.003906 -2.457031 4.390625 -2.21875 C 4.773438 -1.976562 5.445312 -1.859375 6.40625 -1.859375 C 7.289062 -1.859375 7.9375 -1.96875 8.34375 -2.1875 C 8.75 -2.414062 8.953125 -2.769531 8.953125 -3.25 C 8.953125 -3.644531 8.785156 -3.957031 8.453125 -4.1875 C 8.128906 -4.414062 7.582031 -4.609375 6.8125 -4.765625 C 5.03125 -5.117188 3.828125 -5.445312 3.203125 -5.75 C 2.578125 -6.050781 2.101562 -6.441406 1.78125 -6.921875 C 1.457031 -7.398438 1.296875 -7.992188 1.296875 -8.703125 C 1.296875 -9.859375 1.738281 -10.757812 2.625 -11.40625 C 3.519531 -12.0625 4.789062 -12.390625 6.4375 -12.390625 C 7.882812 -12.390625 9.046875 -12.109375 9.921875 -11.546875 C 10.796875 -10.984375 11.34375 -10.171875 11.5625 -9.109375 L 8.765625 -8.8125 C 8.679688 -9.3125 8.460938 -9.679688 8.109375 -9.921875 C 7.753906 -10.160156 7.195312 -10.28125 6.4375 -10.28125 C 5.6875 -10.28125 5.125 -10.1875 4.75 -10 C 4.375 -9.8125 4.1875 -9.492188 4.1875 -9.046875 C 4.1875 -8.691406 4.328125 -8.410156 4.609375 -8.203125 C 4.898438 -7.992188 5.390625 -7.820312 6.078125 -7.6875 C 7.023438 -7.5 7.867188 -7.300781 8.609375 -7.09375 C 9.347656 -6.882812 9.9375 -6.640625 10.375 -6.359375 C 10.820312 -6.078125 11.175781 -5.710938 11.4375 -5.265625 C 11.707031 -4.816406 11.84375 -4.242188 11.84375 -3.546875 Z M 11.84375 -3.546875 "/></g></g></g><g fill="#000000" fill-opacity="1"><g transform="translate(211.128988, 194.918704)"><g><path d="M 1.5625 0 L 1.5625 -3.421875 L 4.8125 -3.421875 L 4.8125 0 Z M 1.5625 0 "/></g></g></g></svg>