<svg xmlns="http://www.w3.org/2000/svg" xmlns:xlink="http://www.w3.org/1999/xlink" width="1587" zoomAndPan="magnify" viewBox="0 0 1190.25 1683.749945" height="2245" preserveAspectRatio="xMidYMid meet" version="1.0"><defs><g/><clipPath id="c7b817b1bc"><path d="M 0 0.40625 L 1189.5 0.40625 L 1189.5 1683.09375 L 0 1683.09375 Z M 0 0.40625 " clip-rule="nonzero"/></clipPath><clipPath id="b59993be76"><path d="M 350 976.339844 L 840 976.339844 L 840 1450 L 350 1450 Z M 350 976.339844 " clip-rule="nonzero"/></clipPath><clipPath id="be7d613a2e"><path d="M 320.066406 1155 L 870.226562 1155 L 870.226562 1468.214844 L 320.066406 1468.214844 Z M 320.066406 1155 " clip-rule="nonzero"/></clipPath><clipPath id="bdb0457684"><path d="M 320.066406 1081 L 870.226562 1081 L 870.226562 1442.925781 L 320.066406 1442.925781 Z M 320.066406 1081 " clip-rule="nonzero"/></clipPath><clipPath id="b33ea029c7"><path d="M 530.042969 329 L 660.515625 329 L 660.515625 538.898438 L 530.042969 538.898438 Z M 530.042969 329 " clip-rule="nonzero"/></clipPath></defs><g clip-path="url(#c7b817b1bc)"><path fill="#ffffff" d="M 0 0.40625 L 1192.25 0.40625 L 1192.25 1694.296875 L 0 1694.296875 Z M 0 0.40625 " fill-opacity="1" fill-rule="nonzero"/><path fill="#ffffff" d="M 0 0.40625 L 1190 0.40625 L 1190 1683.800781 L 0 1683.800781 Z M 0 0.40625 " fill-opacity="1" fill-rule="nonzero"/><path fill="#fcd87c" d="M 0 0.40625 L 1190 0.40625 L 1190 1683.800781 L 0 1683.800781 Z M 0 0.40625 " fill-opacity="1" fill-rule="nonzero"/></g><g clip-path="url(#b59993be76)"><path fill="#9dddc1" d="M 719.007812 976.335938 L 473.496094 976.335938 C 466.375 976.335938 460.542969 982.167969 460.542969 989.292969 L 460.542969 1055.554688 C 460.542969 1062.679688 466.375 1068.515625 473.496094 1068.515625 L 499.046875 1068.515625 L 499.046875 1081.03125 L 503.980469 1081.03125 L 503.980469 1068.515625 L 688.726562 1068.515625 L 688.726562 1081.03125 L 693.65625 1081.03125 L 693.65625 1068.515625 L 719.007812 1068.515625 C 726.140625 1068.515625 731.976562 1062.679688 731.976562 1055.554688 L 731.976562 989.292969 C 731.976562 982.167969 726.140625 976.335938 719.007812 976.335938 Z M 839.558594 1449.910156 L 350.738281 1449.910156 L 350.738281 1155.332031 L 839.5625 1155.332031 L 839.5625 1449.910156 " fill-opacity="1" fill-rule="nonzero"/></g><g clip-path="url(#be7d613a2e)"><path fill="#f36662" d="M 870.226562 1449.914062 L 320.066406 1449.914062 L 320.066406 1468.214844 L 870.226562 1468.214844 Z M 563.488281 1155.335938 L 504.109375 1155.335938 C 504.109375 1172.273438 517.835938 1185.996094 534.777344 1185.996094 C 549.101562 1185.996094 561.089844 1176.179688 564.480469 1162.917969 C 567.859375 1176.179688 579.847656 1185.996094 594.167969 1185.996094 C 611.109375 1185.996094 624.835938 1172.273438 624.835938 1155.335938 Z M 655.515625 1185.996094 C 672.457031 1185.996094 686.183594 1172.273438 686.183594 1155.335938 L 624.835938 1155.335938 C 624.835938 1172.273438 638.574219 1185.996094 655.515625 1185.996094 Z M 716.863281 1185.996094 C 733.804688 1185.996094 747.53125 1172.273438 747.53125 1155.335938 L 686.183594 1155.335938 C 686.183594 1172.273438 699.921875 1185.996094 716.863281 1185.996094 Z M 808.878906 1155.335938 C 808.878906 1172.273438 822.617188 1185.996094 839.558594 1185.996094 C 856.5 1185.996094 870.226562 1172.273438 870.226562 1155.335938 Z M 778.210938 1185.996094 C 795.152344 1185.996094 808.878906 1172.273438 808.878906 1155.335938 L 747.53125 1155.335938 C 747.53125 1172.273438 761.269531 1185.996094 778.210938 1185.996094 Z M 473.429688 1185.996094 C 490.371094 1185.996094 504.109375 1172.273438 504.109375 1155.335938 L 442.761719 1155.335938 C 442.761719 1172.273438 456.5 1185.996094 473.429688 1185.996094 Z M 412.089844 1185.996094 C 429.03125 1185.996094 442.761719 1172.273438 442.761719 1155.335938 L 381.414062 1155.335938 C 381.414062 1172.273438 395.148438 1185.996094 412.089844 1185.996094 Z M 320.066406 1155.335938 L 381.414062 1155.335938 C 381.414062 1172.273438 367.683594 1185.996094 350.738281 1185.996094 C 333.800781 1185.996094 320.066406 1172.273438 320.066406 1155.335938 " fill-opacity="1" fill-rule="nonzero"/></g><path fill="#8766b9" d="M 598.78125 1244.835938 L 407.484375 1244.835938 L 407.476562 1367.953125 L 598.773438 1367.953125 Z M 710.378906 987.101562 C 716.335938 987.101562 721.175781 991.945312 721.175781 997.898438 L 721.175781 1046.945312 C 721.175781 1052.902344 716.335938 1057.75 710.378906 1057.75 L 482.261719 1057.75 C 476.304688 1057.75 471.460938 1052.902344 471.460938 1046.945312 L 471.460938 997.898438 C 471.460938 991.945312 476.304688 987.101562 482.261719 987.101562 Z M 725.503906 1046.945312 L 725.503906 997.898438 C 725.503906 989.5625 718.710938 982.777344 710.378906 982.777344 L 482.261719 982.777344 C 473.925781 982.777344 467.144531 989.5625 467.144531 997.898438 L 467.144531 1046.945312 C 467.144531 1055.285156 473.925781 1062.070312 482.261719 1062.070312 L 710.378906 1062.070312 C 718.710938 1062.070312 725.503906 1055.285156 725.503906 1046.945312 Z M 819.65625 1449.917969 L 655.515625 1449.917969 L 655.515625 1244.839844 L 819.65625 1244.839844 L 819.65625 1449.917969 " fill-opacity="1" fill-rule="nonzero"/><g clip-path="url(#bdb0457684)"><path fill="#f5856e" d="M 609.523438 1367.742188 L 395.1875 1367.742188 L 395.183594 1380.386719 L 609.519531 1380.386719 Z M 591.910156 1252.792969 L 414.351562 1252.792969 L 414.347656 1359.996094 L 591.910156 1359.996094 Z M 813.511719 1252.175781 L 742.257812 1252.175781 L 742.257812 1442.585938 L 813.511719 1442.585938 Z M 732.914062 1252.175781 L 661.644531 1252.175781 L 661.644531 1442.585938 L 732.914062 1442.585938 Z M 870.226562 1155.335938 L 320.066406 1155.335938 L 352.871094 1081.285156 L 837.421875 1081.285156 L 870.226562 1155.335938 " fill-opacity="1" fill-rule="nonzero"/></g><path fill="#fcd87c" d="M 585.667969 1264.46875 L 468.996094 1355.394531 L 501.996094 1355.394531 L 585.667969 1290.183594 Z M 578.050781 1259.660156 L 545.0625 1259.660156 L 422.210938 1355.394531 L 455.214844 1355.394531 Z M 742.257812 1322.109375 L 742.257812 1359.964844 L 808.878906 1297.511719 L 808.878906 1259.660156 Z M 732.914062 1330.867188 L 664.125 1395.351562 L 664.125 1433.207031 L 732.914062 1368.722656 Z M 742.257812 1371.824219 L 742.257812 1409.691406 L 808.878906 1347.242188 L 808.878906 1309.375 Z M 732.914062 1418.453125 L 717.160156 1433.207031 L 676.78125 1433.207031 L 732.914062 1380.597656 L 732.914062 1418.453125 " fill-opacity="1" fill-rule="nonzero"/><g clip-path="url(#b33ea029c7)"><path fill="#c92a2a" d="M 595.5 538.898438 C 590.6875 515.339844 582.195312 495.730469 571.914062 477.558594 C 564.285156 464.078125 555.449219 451.636719 547.273438 438.566406 C 544.546875 434.203125 542.191406 429.59375 539.566406 425.0625 C 534.324219 416.007812 530.070312 405.511719 530.34375 391.890625 C 530.605469 378.585938 534.46875 367.914062 540.035156 359.183594 C 549.191406 344.832031 564.527344 333.0625 585.109375 329.96875 C 601.9375 327.441406 617.710938 331.714844 628.898438 338.234375 C 638.039062 343.5625 645.121094 350.679688 650.503906 359.066406 C 656.121094 367.824219 659.988281 378.167969 660.3125 391.660156 C 660.476562 398.570312 659.34375 404.972656 657.742188 410.28125 C 656.125 415.65625 653.519531 420.148438 651.203125 424.949219 C 646.679688 434.316406 641.011719 442.898438 635.320312 451.484375 C 618.375 477.066406 602.46875 503.152344 595.5 538.898438 Z M 595.5 538.898438 " fill-opacity="1" fill-rule="evenodd"/></g><path fill="#ffffff" d="M 618.101562 391.746094 C 618.101562 392.488281 618.0625 393.230469 617.992188 393.96875 C 617.917969 394.710938 617.808594 395.445312 617.664062 396.171875 C 617.519531 396.902344 617.335938 397.621094 617.121094 398.332031 C 616.902344 399.042969 616.652344 399.742188 616.367188 400.429688 C 616.082031 401.117188 615.761719 401.789062 615.410156 402.445312 C 615.058594 403.101562 614.675781 403.738281 614.261719 404.355469 C 613.847656 404.972656 613.40625 405.570312 612.933594 406.144531 C 612.457031 406.71875 611.957031 407.269531 611.429688 407.792969 C 610.902344 408.320312 610.351562 408.820312 609.773438 409.289062 C 609.199219 409.761719 608.601562 410.203125 607.980469 410.617188 C 607.359375 411.03125 606.722656 411.410156 606.0625 411.761719 C 605.40625 412.113281 604.730469 412.429688 604.042969 412.714844 C 603.355469 413 602.652344 413.25 601.9375 413.464844 C 601.226562 413.679688 600.503906 413.863281 599.769531 414.007812 C 599.039062 414.152344 598.304688 414.261719 597.5625 414.332031 C 596.820312 414.40625 596.074219 414.441406 595.328125 414.441406 C 594.582031 414.441406 593.839844 414.40625 593.097656 414.332031 C 592.355469 414.261719 591.617188 414.152344 590.886719 414.007812 C 590.15625 413.863281 589.433594 413.679688 588.71875 413.464844 C 588.003906 413.25 587.304688 413 586.613281 412.714844 C 585.925781 412.429688 585.25 412.113281 584.59375 411.761719 C 583.9375 411.410156 583.296875 411.03125 582.675781 410.617188 C 582.058594 410.203125 581.457031 409.761719 580.882812 409.289062 C 580.304688 408.820312 579.753906 408.320312 579.226562 407.792969 C 578.699219 407.269531 578.199219 406.71875 577.726562 406.144531 C 577.253906 405.570312 576.808594 404.972656 576.394531 404.355469 C 575.980469 403.738281 575.597656 403.101562 575.246094 402.445312 C 574.894531 401.789062 574.574219 401.117188 574.289062 400.429688 C 574.003906 399.742188 573.753906 399.042969 573.539062 398.332031 C 573.320312 397.621094 573.140625 396.902344 572.996094 396.171875 C 572.847656 395.445312 572.738281 394.710938 572.667969 393.96875 C 572.59375 393.230469 572.554688 392.488281 572.554688 391.746094 C 572.554688 391 572.59375 390.257812 572.667969 389.519531 C 572.738281 388.78125 572.847656 388.046875 572.996094 387.316406 C 573.140625 386.585938 573.320312 385.867188 573.539062 385.15625 C 573.753906 384.445312 574.003906 383.746094 574.289062 383.058594 C 574.574219 382.371094 574.894531 381.699219 575.246094 381.042969 C 575.597656 380.390625 575.980469 379.753906 576.394531 379.132812 C 576.808594 378.515625 577.253906 377.917969 577.726562 377.34375 C 578.199219 376.769531 578.699219 376.21875 579.226562 375.695312 C 579.753906 375.167969 580.304688 374.671875 580.882812 374.199219 C 581.457031 373.726562 582.058594 373.285156 582.675781 372.871094 C 583.296875 372.457031 583.9375 372.078125 584.59375 371.726562 C 585.25 371.375 585.925781 371.058594 586.613281 370.773438 C 587.304688 370.488281 588.003906 370.238281 588.71875 370.023438 C 589.433594 369.808594 590.15625 369.628906 590.886719 369.484375 C 591.617188 369.335938 592.355469 369.230469 593.097656 369.15625 C 593.839844 369.082031 594.582031 369.046875 595.328125 369.046875 C 596.074219 369.046875 596.820312 369.082031 597.5625 369.15625 C 598.304688 369.230469 599.039062 369.335938 599.769531 369.484375 C 600.503906 369.628906 601.226562 369.808594 601.9375 370.023438 C 602.652344 370.238281 603.355469 370.488281 604.042969 370.773438 C 604.730469 371.058594 605.40625 371.375 606.0625 371.726562 C 606.722656 372.078125 607.359375 372.457031 607.980469 372.871094 C 608.601562 373.285156 609.199219 373.726562 609.773438 374.199219 C 610.351562 374.671875 610.902344 375.167969 611.429688 375.695312 C 611.957031 376.21875 612.457031 376.769531 612.933594 377.34375 C 613.40625 377.917969 613.847656 378.515625 614.261719 379.132812 C 614.675781 379.753906 615.058594 380.390625 615.410156 381.042969 C 615.761719 381.699219 616.082031 382.371094 616.367188 383.058594 C 616.652344 383.746094 616.902344 384.445312 617.121094 385.15625 C 617.335938 385.867188 617.519531 386.585938 617.664062 387.316406 C 617.808594 388.046875 617.917969 388.78125 617.992188 389.519531 C 618.0625 390.257812 618.101562 391 618.101562 391.746094 Z M 618.101562 391.746094 " fill-opacity="1" fill-rule="nonzero"/><g fill="#ff5757" fill-opacity="1"><g transform="translate(334.809458, 733.140479)"><g><path d="M 44.578125 -45.488281 L 41.132812 -12.929688 L 12.738281 -45.488281 L 7.863281 -45.488281 L 3.054688 0 L 4.613281 0 L 8.316406 -34.960938 L 39.183594 0 L 41.394531 0 L 46.136719 -45.488281 Z M 44.578125 -45.488281 "/></g></g></g><g fill="#ff5757" fill-opacity="1"><g transform="translate(382.698653, 733.140479)"><g><path d="M 40.613281 -44.1875 L 40.742188 -45.488281 L 7.863281 -45.488281 L 3.054688 0 L 36.648438 0 L 36.78125 -1.300781 L 13.125 -1.300781 L 15.335938 -22.417969 L 33.140625 -22.417969 L 33.269531 -23.71875 L 15.464844 -23.71875 L 17.609375 -44.1875 Z M 40.613281 -44.1875 "/></g></g></g><g fill="#ff5757" fill-opacity="1"><g transform="translate(422.790412, 733.140479)"><g><path d="M 71.609375 -45.488281 L 52.308594 -9.878906 L 40.613281 -45.488281 L 30.152344 -45.488281 L 36 -27.746094 L 26.316406 -9.878906 L 14.621094 -45.488281 L 4.160156 -45.488281 L 19.234375 0 L 22.742188 0 L 36.714844 -25.667969 L 45.226562 0 L 48.734375 0 L 73.429688 -45.488281 Z M 71.609375 -45.488281 "/></g></g></g><g fill="#ff5757" fill-opacity="1"><g transform="translate(494.266812, 733.140479)"><g/></g></g><g fill="#ff5757" fill-opacity="1"><g transform="translate(510.90132, 733.140479)"><g><path d="M 13.125 -1.300781 L 17.804688 -45.488281 L 7.863281 -45.488281 L 3.054688 0 L 35.023438 0 L 35.15625 -1.300781 Z M 13.125 -1.300781 "/></g></g></g><g fill="#ff5757" fill-opacity="1"><g transform="translate(549.043738, 733.140479)"><g><path d="M 24.886719 0.648438 C 38.730469 0.648438 50.230469 -9.421875 51.660156 -22.742188 C 53.023438 -36.066406 43.667969 -46.136719 29.828125 -46.136719 C 15.984375 -46.136719 4.417969 -36.066406 3.054688 -22.742188 C 1.625 -9.421875 11.046875 0.648438 24.886719 0.648438 Z M 25.019531 -0.648438 C 16.570312 -0.648438 11.828125 -9.421875 13.257812 -22.742188 C 14.621094 -36.066406 21.183594 -44.835938 29.695312 -44.835938 C 38.144531 -44.835938 42.824219 -36.066406 41.457031 -22.742188 C 40.027344 -9.421875 33.53125 -0.648438 25.019531 -0.648438 Z M 25.019531 -0.648438 "/></g></g></g><g fill="#ff5757" fill-opacity="1"><g transform="translate(602.456106, 733.140479)"><g><path d="M 29.828125 -46.136719 C 15.984375 -46.136719 4.417969 -35.871094 3.054688 -22.679688 C 1.625 -9.226562 11.5 0.648438 25.082031 0.648438 C 33.59375 0.648438 40.875 -3.183594 44.121094 -8.316406 L 42.824219 -9.226562 C 39.769531 -4.484375 34.570312 -1.558594 28.265625 -1.558594 C 17.738281 -1.558594 11.890625 -9.550781 13.257812 -22.742188 C 14.621094 -35.933594 22.160156 -43.863281 32.75 -43.863281 C 37.949219 -43.863281 41.71875 -41.847656 43.40625 -38.921875 C 42.953125 -39.054688 42.496094 -39.117188 42.042969 -39.117188 C 39.25 -39.117188 36.78125 -37.105469 36.453125 -34.179688 C 36.195312 -31.320312 38.144531 -29.242188 41.066406 -29.242188 C 43.992188 -29.242188 46.203125 -31.386719 46.460938 -33.984375 C 46.460938 -34.050781 46.460938 -34.113281 46.460938 -34.179688 C 47.113281 -40.351562 40.289062 -46.136719 29.828125 -46.136719 Z M 29.828125 -46.136719 "/></g></g></g><g fill="#ff5757" fill-opacity="1"><g transform="translate(649.435596, 733.140479)"><g><path d="M 32.164062 0 L 42.691406 0 L 27.550781 -45.488281 L 24.109375 -45.488281 L -0.648438 0 L 1.167969 0 L 7.863281 -12.28125 L 28.136719 -12.28125 Z M 8.511719 -13.582031 L 20.46875 -35.542969 L 27.683594 -13.582031 Z M 8.511719 -13.582031 "/></g></g></g><g fill="#ff5757" fill-opacity="1"><g transform="translate(694.920574, 733.140479)"><g><path d="M 41.71875 -45.488281 L 4.09375 -45.488281 L 3.898438 -44.1875 L 17.804688 -44.1875 L 13.125 0 L 23.070312 0 L 27.746094 -44.1875 L 41.523438 -44.1875 Z M 41.71875 -45.488281 "/></g></g></g><g fill="#ff5757" fill-opacity="1"><g transform="translate(734.622469, 733.140479)"><g><path d="M 3.054688 0 L 12.996094 0 L 17.804688 -45.488281 L 7.863281 -45.488281 Z M 3.054688 0 "/></g></g></g><g fill="#ff5757" fill-opacity="1"><g transform="translate(754.181013, 733.140479)"><g><path d="M 24.886719 0.648438 C 38.730469 0.648438 50.230469 -9.421875 51.660156 -22.742188 C 53.023438 -36.066406 43.667969 -46.136719 29.828125 -46.136719 C 15.984375 -46.136719 4.417969 -36.066406 3.054688 -22.742188 C 1.625 -9.421875 11.046875 0.648438 24.886719 0.648438 Z M 25.019531 -0.648438 C 16.570312 -0.648438 11.828125 -9.421875 13.257812 -22.742188 C 14.621094 -36.066406 21.183594 -44.835938 29.695312 -44.835938 C 38.144531 -44.835938 42.824219 -36.066406 41.457031 -22.742188 C 40.027344 -9.421875 33.53125 -0.648438 25.019531 -0.648438 Z M 25.019531 -0.648438 "/></g></g></g><g fill="#ff5757" fill-opacity="1"><g transform="translate(807.593381, 733.140479)"><g><path d="M 44.578125 -45.488281 L 41.132812 -12.929688 L 12.738281 -45.488281 L 7.863281 -45.488281 L 3.054688 0 L 4.613281 0 L 8.316406 -34.960938 L 39.183594 0 L 41.394531 0 L 46.136719 -45.488281 Z M 44.578125 -45.488281 "/></g></g></g><g fill="#ff5757" fill-opacity="1"><g transform="translate(855.480929, 733.140479)"><g/></g></g><g fill="#ff5757" fill-opacity="1"><g transform="translate(338.476654, 823.871349)"><g><path d="M 24.886719 0.648438 C 38.730469 0.648438 50.230469 -9.421875 51.660156 -22.742188 C 53.023438 -36.066406 43.667969 -46.136719 29.828125 -46.136719 C 15.984375 -46.136719 4.417969 -36.066406 3.054688 -22.742188 C 1.625 -9.421875 11.046875 0.648438 24.886719 0.648438 Z M 25.019531 -0.648438 C 16.570312 -0.648438 11.828125 -9.421875 13.257812 -22.742188 C 14.621094 -36.066406 21.183594 -44.835938 29.695312 -44.835938 C 38.144531 -44.835938 42.824219 -36.066406 41.457031 -22.742188 C 40.027344 -9.421875 33.53125 -0.648438 25.019531 -0.648438 Z M 25.019531 -0.648438 "/></g></g></g><g fill="#ff5757" fill-opacity="1"><g transform="translate(391.889022, 823.871349)"><g><path d="M 28.527344 -45.488281 L 7.863281 -45.488281 L 3.054688 0 L 12.996094 0 L 14.816406 -17.15625 L 25.539062 -17.15625 C 35.21875 -17.15625 43.277344 -23.199219 44.121094 -31.320312 C 44.96875 -39.445312 38.210938 -45.488281 28.527344 -45.488281 Z M 33.921875 -31.320312 C 33.140625 -23.589844 28.785156 -18.453125 22.9375 -18.453125 L 14.945312 -18.453125 L 17.609375 -44.1875 L 25.601562 -44.1875 C 31.449219 -44.1875 34.765625 -39.054688 33.921875 -31.320312 Z M 33.921875 -31.320312 "/></g></g></g><g fill="#ff5757" fill-opacity="1"><g transform="translate(435.879499, 823.871349)"><g><path d="M 40.613281 -44.1875 L 40.742188 -45.488281 L 7.863281 -45.488281 L 3.054688 0 L 36.648438 0 L 36.78125 -1.300781 L 13.125 -1.300781 L 15.335938 -22.417969 L 33.140625 -22.417969 L 33.269531 -23.71875 L 15.464844 -23.71875 L 17.609375 -44.1875 Z M 40.613281 -44.1875 "/></g></g></g><g fill="#ff5757" fill-opacity="1"><g transform="translate(475.971257, 823.871349)"><g><path d="M 44.578125 -45.488281 L 41.132812 -12.929688 L 12.738281 -45.488281 L 7.863281 -45.488281 L 3.054688 0 L 4.613281 0 L 8.316406 -34.960938 L 39.183594 0 L 41.394531 0 L 46.136719 -45.488281 Z M 44.578125 -45.488281 "/></g></g></g><g fill="#ff5757" fill-opacity="1"><g transform="translate(523.860453, 823.871349)"><g><path d="M 3.054688 0 L 12.996094 0 L 17.804688 -45.488281 L 7.863281 -45.488281 Z M 3.054688 0 "/></g></g></g><g fill="#ff5757" fill-opacity="1"><g transform="translate(543.419008, 823.871349)"><g><path d="M 44.578125 -45.488281 L 41.132812 -12.929688 L 12.738281 -45.488281 L 7.863281 -45.488281 L 3.054688 0 L 4.613281 0 L 8.316406 -34.960938 L 39.183594 0 L 41.394531 0 L 46.136719 -45.488281 Z M 44.578125 -45.488281 "/></g></g></g><g fill="#ff5757" fill-opacity="1"><g transform="translate(591.308203, 823.871349)"><g><path d="M 37.558594 -19.234375 L 36.324219 -7.214844 C 34.699219 -3.054688 30.867188 -0.648438 25.863281 -0.648438 C 16.570312 -0.648438 11.828125 -9.226562 13.191406 -22.09375 C 14.6875 -36.195312 22.09375 -43.992188 33.207031 -43.992188 C 38.402344 -43.992188 42.304688 -42.238281 43.992188 -39.183594 C 43.539062 -39.3125 43.082031 -39.378906 42.628906 -39.378906 C 39.636719 -39.378906 37.234375 -37.300781 36.910156 -34.441406 C 36.648438 -31.515625 38.597656 -29.4375 41.589844 -29.4375 C 44.382812 -29.4375 46.65625 -31.515625 46.917969 -34.441406 C 47.632812 -41.199219 40.679688 -46.136719 30.542969 -46.136719 C 16.179688 -46.136719 4.417969 -36.066406 3.054688 -22.808594 C 1.625 -9.421875 11.4375 0.648438 25.082031 0.648438 C 31.386719 0.648438 36.78125 -1.429688 39.507812 -4.875 L 44.382812 0 L 45.03125 0 L 47.046875 -19.234375 Z M 37.558594 -19.234375 "/></g></g></g><g fill="#ff5757" fill-opacity="1"><g transform="translate(641.276717, 823.871349)"><g/></g></g><g fill="#ff5757" fill-opacity="1"><g transform="translate(657.911226, 823.871349)"><g><path d="M 29.046875 -36 C 28.785156 -33.59375 30.476562 -31.777344 33.074219 -31.777344 C 35.351562 -31.777344 37.363281 -33.59375 37.625 -36 C 38.210938 -41.847656 31.90625 -46.136719 23.132812 -46.136719 C 13.449219 -46.136719 5.652344 -40.742188 4.808594 -32.6875 C 3.898438 -24.171875 11.4375 -20.988281 17.871094 -18.195312 C 23.652344 -15.660156 28.785156 -13.386719 28.265625 -8.578125 C 27.8125 -4.09375 22.808594 -1.039062 16.246094 -1.039062 C 11.046875 -1.039062 6.824219 -2.988281 4.9375 -5.976562 C 5.199219 -5.914062 5.457031 -5.914062 5.71875 -5.914062 C 8.058594 -5.914062 10.007812 -7.734375 10.265625 -10.136719 C 10.527344 -12.542969 8.96875 -14.359375 6.5625 -14.359375 C 4.027344 -14.359375 1.949219 -12.542969 1.691406 -10.136719 C 1.039062 -3.964844 8.316406 0.648438 17.933594 0.648438 C 28.332031 0.648438 36.066406 -4.808594 36.910156 -12.800781 C 37.753906 -20.925781 30.671875 -23.847656 23.78125 -26.640625 C 18 -29.046875 12.410156 -31.386719 12.996094 -36.519531 C 13.449219 -41.066406 18.390625 -44.445312 24.5625 -44.445312 C 28.980469 -44.445312 32.621094 -42.824219 34.375 -40.222656 C 34.179688 -40.222656 34.050781 -40.222656 33.921875 -40.222656 C 31.386719 -40.222656 29.304688 -38.402344 29.046875 -36 Z M 29.046875 -36 "/></g></g></g><g fill="#ff5757" fill-opacity="1"><g transform="translate(697.093303, 823.871349)"><g><path d="M 24.886719 0.648438 C 38.730469 0.648438 50.230469 -9.421875 51.660156 -22.742188 C 53.023438 -36.066406 43.667969 -46.136719 29.828125 -46.136719 C 15.984375 -46.136719 4.417969 -36.066406 3.054688 -22.742188 C 1.625 -9.421875 11.046875 0.648438 24.886719 0.648438 Z M 25.019531 -0.648438 C 16.570312 -0.648438 11.828125 -9.421875 13.257812 -22.742188 C 14.621094 -36.066406 21.183594 -44.835938 29.695312 -44.835938 C 38.144531 -44.835938 42.824219 -36.066406 41.457031 -22.742188 C 40.027344 -9.421875 33.53125 -0.648438 25.019531 -0.648438 Z M 25.019531 -0.648438 "/></g></g></g><g fill="#ff5757" fill-opacity="1"><g transform="translate(750.505671, 823.871349)"><g><path d="M 24.886719 0.648438 C 38.730469 0.648438 50.230469 -9.421875 51.660156 -22.742188 C 53.023438 -36.066406 43.667969 -46.136719 29.828125 -46.136719 C 15.984375 -46.136719 4.417969 -36.066406 3.054688 -22.742188 C 1.625 -9.421875 11.046875 0.648438 24.886719 0.648438 Z M 25.019531 -0.648438 C 16.570312 -0.648438 11.828125 -9.421875 13.257812 -22.742188 C 14.621094 -36.066406 21.183594 -44.835938 29.695312 -44.835938 C 38.144531 -44.835938 42.824219 -36.066406 41.457031 -22.742188 C 40.027344 -9.421875 33.53125 -0.648438 25.019531 -0.648438 Z M 25.019531 -0.648438 "/></g></g></g><g fill="#ff5757" fill-opacity="1"><g transform="translate(803.918039, 823.871349)"><g><path d="M 44.578125 -45.488281 L 41.132812 -12.929688 L 12.738281 -45.488281 L 7.863281 -45.488281 L 3.054688 0 L 4.613281 0 L 8.316406 -34.960938 L 39.183594 0 L 41.394531 0 L 46.136719 -45.488281 Z M 44.578125 -45.488281 "/></g></g></g></svg>